<svg xmlns="http://www.w3.org/2000/svg" viewBox="0 0 256 256" style="enable-background:new 0 0 256 256" xml:space="preserve"><path d="M49.1 44.1h157.6v143.4H49.1V44.1z" style="fill:#fff"/><path d="M255.6 128c0 70.5-57.1 127.6-127.6 127.6S.4 198.5.4 128 57.5.4 128 .4 255.6 57.5 255.6 128zM91.9 178.8H67.1c-5.2 0-7.8 0-9.3-1-1.7-1.1-2.7-2.9-2.9-4.9-.1-1.8 1.2-4.1 3.8-8.6l61.1-107.7c2.6-4.6 3.9-6.9 5.6-7.7 1.8-.9 3.9-.9 5.7 0 1.7.8 3 3.1 5.6 7.7l12.6 21.9.1.1c2.8 4.9 4.2 7.4 4.9 10 .7 2.9.7 5.9 0 8.7-.6 2.6-2 5.1-4.9 10.1l-32.1 56.8-.1.1c-2.8 4.9-4.3 7.5-6.2 9.3-2.2 2.1-4.8 3.6-7.6 4.4-2.8.8-5.7.8-11.5.8zm62.5 0h35.5c5.2 0 7.9 0 9.4-1 1.7-1.1 2.8-2.9 2.9-5 .1-1.8-1.2-4-3.6-8.2-.1-.1-.2-.3-.3-.4l-17.8-30.4-.2-.3c-2.5-4.2-3.8-6.4-5.4-7.2-1.8-.9-3.9-.9-5.7 0-1.6.8-2.9 3.1-5.5 7.6L146 164.2l-.1.1c-2.6 4.5-3.9 6.7-3.8 8.5.1 2 1.2 3.9 2.9 5 1.5 1 4.1 1 9.4 1z" style="fill-rule:evenodd;clip-rule:evenodd;fill:#e84242"/></svg>